<svg xmlns="http://www.w3.org/2000/svg" xmlns:xlink="http://www.w3.org/1999/xlink" width="137.655" height="137.655" viewBox="0 0 137.655 137.655">
  <defs>
    <filter id="Path_36" x="0" y="0" width="137.655" height="137.655" filterUnits="userSpaceOnUse">
      <feOffset dy="3" input="SourceAlpha"/>
      <feGaussianBlur stdDeviation="10.5" result="blur"/>
      <feFlood flood-opacity="0.141"/>
      <feComposite operator="in" in2="blur"/>
      <feComposite in="SourceGraphic"/>
    </filter>
  </defs>
  <g id="Calque_2" data-name="Calque 2" transform="translate(31.5 28.51)">
    <g id="Calque_1" data-name="Calque 1" transform="translate(0 -0.01)">
      <path id="Path_118" data-name="Path 118" d="M48.2,96.459A48.234,48.234,0,1,0,0,48.224,48.234,48.234,0,0,0,48.2,96.459Z" transform="translate(-10.907 -10.898)" fill="#fff"/>
      <g transform="matrix(1, 0, 0, 1, -31.5, -28.5)" filter="url(#Path_36)">
        <path id="Path_36-2" data-name="Path 36" d="M37.3,74.645A37.327,37.327,0,1,0,0,37.317,37.327,37.327,0,0,0,37.3,74.645Z" transform="translate(31.5 28.51)" fill="#1a91a1"/>
      </g>
      <path id="Path_37" data-name="Path 37" d="M43.453,2,10,13.328l10.175,2.041Z" transform="translate(19.578 3.945)" fill="#17a784"/>
      <path id="Path_38" data-name="Path 38" d="M10,7.083,20.175,9.124,26.919,5.19Z" transform="translate(19.578 10.191)" fill="#22b573"/>
      <path id="Path_39" data-name="Path 39" d="M13.46,15.369l1.6,12.009L36.679,2Z" transform="translate(26.352 3.945)" fill="#119371"/>
      <path id="Path_40" data-name="Path 40" d="M13.46,9.124l1.6,12.009L24.729,9.715,23.043,6.994,19.731,9.745,20.2,5.19h0Z" transform="translate(26.352 10.191)" fill="#00a99d"/>
      <path id="Path_41" data-name="Path 41" d="M35.622,2,16.041,18.179,14,27.378Z" transform="translate(27.409 3.945)" fill="#fecd0d"/>
      <path id="Path_42" data-name="Path 42" d="M18.673,8.551,16.041,10.74,14,19.938,23.672,8.521,21.986,5.8,18.673,8.551Z" transform="translate(27.409 11.385)" fill="#22b573"/>
      <path id="Path_43" data-name="Path 43" d="M27.616,24.627,34.271,2,14.69,18.179Z" transform="translate(28.76 3.945)" fill="#17a784"/>
      <path id="Path_44" data-name="Path 44" d="M17.293,8.551l-2.6,2.189,12.9,6.448L20.606,5.8,17.293,8.551Z" transform="translate(28.76 11.385)" fill="#22b573"/>
      <path id="Path_45" data-name="Path 45" d="M7.83,20.452,21.347,7.26l.592.8ZM23.684,29.68h0L35.929,15.6l.887.385ZM13.45,28.29h0L24.9,18.026l-.621-.532Z" transform="translate(15.33 14.243)" fill="#fff"/>
      <path id="Path_46" data-name="Path 46" d="M13.949,38.257a9.908,9.908,0,0,0,1.923-.71l1.183,1.006a1.035,1.035,0,0,0,1.331,0l1.716-1.6a.976.976,0,0,0,0-1.3l-.917-1.242A9.79,9.79,0,0,0,20.1,32.46h1.538a1.006,1.006,0,0,0,.946-.947V29.177a1.035,1.035,0,0,0-.858-1.035l-1.479-.237a9.169,9.169,0,0,0-.769-2.13l1.213-1.154a1.035,1.035,0,0,0,0-1.331l-1.6-1.745a1.006,1.006,0,0,0-1.3,0l-1.213.858a9.2,9.2,0,0,0-2.041-.946v-1.39a.976.976,0,0,0-.946-.917H11.228a1.006,1.006,0,0,0-1.006.858l-.207,1.361a8.489,8.489,0,0,0-2.1.769L6.88,21.221a1.035,1.035,0,0,0-1.331,0l-1.716,1.6a1.006,1.006,0,0,0,0,1.3L4.6,25.214a9.051,9.051,0,0,0-1.094,1.775H2.148a.976.976,0,0,0-.917.946v2.337a1.006,1.006,0,0,0,.828,1.035l1.361.207a8.548,8.548,0,0,0,.828,2.248L3.36,34.826a.946.946,0,0,0,0,1.3l1.568,1.745a1.035,1.035,0,0,0,1.331,0l1.183-.858a7.9,7.9,0,0,0,2.041.887v1.449a1.035,1.035,0,0,0,.946.946H12.8a1.006,1.006,0,0,0,1.006-.858ZM8.034,29.384a2.788,2.788,0,1,1-.089.118Z" transform="translate(2.407 37.521)" fill="#fff"/>
      <path id="Path_47" data-name="Path 47" d="M8.1,16.329,7,17.542a.947.947,0,0,0,0,1.3l.621.739a7.335,7.335,0,0,0-.68,1.8H6a1.006,1.006,0,0,0-.828,1.006V24.02a1.006,1.006,0,0,0,.917.946h.946a6.566,6.566,0,0,0,.858,1.775l-.592.8a.976.976,0,0,0,0,1.3l1.183,1.094a.976.976,0,0,0,1.3,0l.8-.71a7.217,7.217,0,0,0,1.745.621v1.006a.976.976,0,0,0,1.006.828H14.96a.976.976,0,0,0,.946-.917V29.669a5.915,5.915,0,0,0,1.508-.739l.917.68a1.006,1.006,0,0,0,1.3-.148l1.094-1.183a1.035,1.035,0,0,0,0-1.331l-.71-.828a6.714,6.714,0,0,0,.592-1.627l1.124-.177a1.006,1.006,0,0,0,.828-1.035V21.653a.976.976,0,0,0-.917-.917H20.551a7.217,7.217,0,0,0-.769-1.686l.621-.887a1.006,1.006,0,0,0,0-1.3l-.946-1.035a.976.976,0,0,0-1.3,0l-.8.8A5.916,5.916,0,0,0,15.641,16L15.463,15a1.006,1.006,0,0,0-1.006-.828H12.831a.946.946,0,0,0-.917.887v1.006a7.483,7.483,0,0,0-1.656.739l-.769-.562a.976.976,0,0,0-1.39.089Zm9.08,6.478a3.165,3.165,0,1,1-3.313-2.958A3.165,3.165,0,0,1,17.179,22.807Z" transform="translate(10.122 27.771)" fill="#fff"/>
      <path id="Path_48" data-name="Path 48" d="M14.033,32.7a.976.976,0,0,0,.946.917h.976a1.006,1.006,0,0,0,1.035-.828v-.71a5.915,5.915,0,0,0,1.272-.473l.592.5a.946.946,0,0,0,1.3,0l.739-.651a.976.976,0,0,0,0-1.3l-.414-.592a5.916,5.916,0,0,0,.621-1.3h.769a1.035,1.035,0,0,0,.917-.947V26.312a.976.976,0,0,0-.8-1.006h-.71a6.478,6.478,0,0,0-.5-1.449l.473-.532a.976.976,0,0,0,0-1.3l-.414-.828a1.035,1.035,0,0,0-1.3,0l-.562.414a4.437,4.437,0,0,0-1.361-.651v-.651a.976.976,0,0,0-.946-.917H15.69a1.006,1.006,0,0,0-1.035.8v.651a5.146,5.146,0,0,0-1.39.473l-.5-.651a1.035,1.035,0,0,0-1.331,0l-.739.68a.976.976,0,0,0,0,1.3l.325.473a7.838,7.838,0,0,0-.68,1.42H9.508a1.006,1.006,0,0,0-.917.946v.976a1.006,1.006,0,0,0,.8,1.035h.621A6.537,6.537,0,0,0,10.543,29l-.414.473a1.035,1.035,0,0,0,0,1.331l.68.739a.976.976,0,0,0,1.3,0l.562-.385a5.176,5.176,0,0,0,1.361.621Zm-.858-6.448a2.6,2.6,0,1,1,5.176.266,2.632,2.632,0,0,1-2.721,2.455,2.573,2.573,0,0,1-2.455-2.721Z" transform="translate(16.817 37.99)" fill="#fff"/>
    </g>
  </g>
</svg>
