<svg xmlns="http://www.w3.org/2000/svg" width="201.713" height="44.133" viewBox="0 0 201.713 44.133">
  <g id="Layer_1" data-name="Layer 1" transform="translate(0.5 0.5)">
    <rect id="Rectangle_47" data-name="Rectangle 47" width="199.352" height="41.749" transform="translate(0)" fill="none" stroke="#302f2e" stroke-miterlimit="10" stroke-width="1"/>
    <path id="Path_69" data-name="Path 69" d="M11.56,31.932V5.61h7.646c5.658,0,9.252,2.814,9.252,7.969s-3.519,7.969-9.214,7.969H15.4V31.932Zm7.646-13.9c3.384,0,5.44-1.621,5.44-4.45s-2.1-4.45-5.44-4.45H15.454v8.9Z" transform="translate(-3.261 -1.776)" fill="#36a8cd"/>
    <path id="Path_70" data-name="Path 70" d="M55.468,31.932,42.449,11.59h-.068V31.932H38.54V5.61h4.194L55.543,25.637h.068V5.61h3.842V31.932Z" transform="translate(-9.997 -1.776)" fill="#36a8cd"/>
    <path id="Path_71" data-name="Path 71" d="M70.51,31.932V5.61h7.121c4.84,0,7.894,3,7.894,7.151a6,6,0,0,1-2.319,5.147,6.9,6.9,0,0,1,3.917,6.4c0,4.7-3.519,7.646-8.321,7.646Zm7.008-15.367c2.6,0,4.194-1.246,4.194-3.7s-1.6-3.752-4.412-3.752H74.352V16.55Zm.96,11.848c2.739,0,4.8-1.568,4.8-4.127,0-1.778-1.208-4.194-4.7-4.194H74.352v8.321Z" transform="translate(-17.978 -1.776)" fill="#fca311"/>
    <path id="Path_72" data-name="Path 72" d="M106.745,33.849a10.648,10.648,0,0,1-10.5-10.28,10.644,10.644,0,0,1,21.287.045A10.565,10.565,0,0,1,106.745,33.849Zm.105-17.363a6.933,6.933,0,1,0,4.929,2.02A6.993,6.993,0,0,0,106.85,16.486Z" transform="translate(-24.402 -3.648)" fill="#fca311"/>
    <path id="Path_73" data-name="Path 73" d="M138.745,33.849a10.648,10.648,0,0,1-10.5-10.28,10.644,10.644,0,0,1,21.287.045A10.565,10.565,0,0,1,138.745,33.849Zm.105-17.363a6.933,6.933,0,1,0,4.929,2.02A6.993,6.993,0,0,0,138.85,16.486Z" transform="translate(-32.391 -3.648)" fill="#fca311"/>
    <path id="Path_74" data-name="Path 74" d="M162.1,31.932V5.61h3.677V31.932Zm11.668,0-7.894-10.2,7.008-9.5h4.375l-7.151,9.282,8.254,10.422Z" transform="translate(-40.844 -1.776)" fill="#fca311"/>
    <path id="Path_75" data-name="Path 75" d="M187.51,34.134V14.43h3.7v19.7Z" transform="translate(-47.188 -3.978)" fill="#fca311"/>
    <path id="Path_76" data-name="Path 76" d="M212.549,33.954V23.217c0-4.164-1.636-6.123-4.907-6.123s-5.192,2.386-5.192,6.085V33.954h-3.7V14.25H202.2v2.1h.068a6.9,6.9,0,0,1,5.763-2.634c4.735,0,8.216,3,8.216,8.426v11.81Z" transform="translate(-49.994 -3.798)" fill="#fca311"/>
    <path id="Path_77" data-name="Path 77" d="M244.325,31.368a8.164,8.164,0,0,1-6.821,3.1c-5.658,0-10.5-4.877-10.5-10.212a10.407,10.407,0,0,1,10.572-10.5,9.514,9.514,0,0,1,6.828,2.806V14.3h3.7V31.413c0,6.408-3.947,10.355-10.64,10.355a10.242,10.242,0,0,1-9.754-6.228h4.127a6.468,6.468,0,0,0,5.658,2.851c4.5,0,6.9-2.461,6.9-6.978Zm.075-7.256A6.753,6.753,0,0,0,237.46,17.1a6.99,6.99,0,1,0,6.941,7.008Z" transform="translate(-57.046 -3.807)" fill="#fca311"/>
    <path id="Path_78" data-name="Path 78" d="M133.987,42.753c-1.381,3.924-4.915,6.175-9.972,6.175A10.242,10.242,0,0,1,114.26,42.7h4.127a6.453,6.453,0,0,0,5.658,2.851c2.844,0,4.84-.975,5.928-2.821Z" transform="translate(-28.901 -11.035)" fill="#fca311"/>
    <path id="Path_79" data-name="Path 79" d="M187.51,9.952V7.4a1.808,1.808,0,0,1,1.808-1.8h0a1.891,1.891,0,0,1,1.891,1.9h0a2.439,2.439,0,0,1-2.439,2.446Z" transform="translate(-47.188 -1.773)" fill="#36a8cd"/>
    <path id="Path_80" data-name="Path 80" d="M265.161,57.4V55.9h-1.5v-.75h1.5v-1.5h.75v1.5h1.5v.75h-1.5v1.5Z" transform="translate(-66.199 -13.769)" fill="#fca311"/>
  </g>
</svg>
