<svg width="155" height="58" viewBox="0 0 455 170" fill="none" xmlns="http://www.w3.org/2000/svg">
<rect width="155" height="58" fill="#302F2E"/>
<path d="M43.5898 136.96V41.6321C43.5898 40.2881 44.1178 39.1361 45.1738 38.1761C46.3258 37.2161 47.7658 36.7361 49.4938 36.7361H77.5738C87.1738 36.7361 94.8058 39.2801 100.47 44.3681C106.23 49.4561 109.11 57.4721 109.11 68.4161V69.5681C109.11 80.5121 106.134 88.5761 100.182 93.7601C94.3258 98.8481 86.5018 101.392 76.7098 101.392H58.8538V136.96C58.8538 138.496 58.0858 139.744 56.5498 140.704C55.1098 141.568 53.3338 142 51.2218 142C49.2058 142 47.4298 141.568 45.8938 140.704C44.3578 139.744 43.5898 138.496 43.5898 136.96ZM58.8538 89.2961H76.7098C82.1818 89.2961 86.4058 87.7601 89.3818 84.6881C92.3578 81.5201 93.8458 76.8161 93.8458 70.5761V68.8481C93.8458 62.6081 92.3578 57.9521 89.3818 54.8801C86.4058 51.8081 82.1818 50.2721 76.7098 50.2721H58.8538V89.2961Z" fill="white"/>
<path d="M122.059 136.96V41.7761C122.059 38.4161 124.603 36.7361 129.691 36.7361C132.379 36.7361 134.539 37.3601 136.171 38.6081C137.803 39.7601 139.483 42.0161 141.211 45.3761L173.179 107.728V41.6321C173.179 40.0001 173.899 38.8001 175.339 38.0321C176.875 37.1681 178.699 36.7361 180.811 36.7361C182.923 36.7361 184.699 37.1681 186.139 38.0321C187.675 38.8001 188.443 40.0001 188.443 41.6321V136.96C188.443 138.496 187.675 139.744 186.139 140.704C184.699 141.568 182.923 142 180.811 142C176.779 142 173.755 140.128 171.739 136.384L137.323 70.8641V136.96C137.323 138.496 136.555 139.744 135.019 140.704C133.579 141.568 131.803 142 129.691 142C127.675 142 125.899 141.568 124.363 140.704C122.827 139.744 122.059 138.496 122.059 136.96Z" fill="white"/>
<path d="M200.094 45.6481C200.094 43.8241 200.526 42.2401 201.39 40.8961C202.254 39.4561 203.502 38.7361 205.134 38.7361H264.894C266.526 38.7361 267.774 39.4081 268.638 40.7521C269.502 42.0961 269.934 43.6801 269.934 45.5041C269.934 47.5201 269.454 49.2481 268.494 50.6881C267.63 52.0321 266.43 52.7041 264.894 52.7041H242.718V138.96C242.718 140.496 241.95 141.744 240.414 142.704C238.878 143.568 237.102 144 235.086 144C232.974 144 231.15 143.568 229.614 142.704C228.174 141.744 227.454 140.496 227.454 138.96V52.7041H205.134C203.598 52.7041 202.35 52.0321 201.39 50.6881C200.526 49.2481 200.094 47.5681 200.094 45.6481Z" fill="#36A8CD"/>
<path d="M281.41 138.96V43.7761C281.41 42.2401 282.082 41.0401 283.426 40.1761C284.77 39.2161 286.354 38.7361 288.178 38.7361H339.442C341.074 38.7361 342.322 39.4081 343.186 40.7521C344.05 42.0961 344.482 43.6321 344.482 45.3601C344.482 47.2801 344.002 48.9121 343.042 50.2561C342.178 51.6001 340.978 52.2721 339.442 52.2721H296.674V85.2481H318.85C320.386 85.2481 321.586 85.8721 322.45 87.1201C323.41 88.2721 323.89 89.7121 323.89 91.4401C323.89 92.9761 323.458 94.3681 322.594 95.6161C321.73 96.7681 320.482 97.3441 318.85 97.3441H296.674V130.464H339.442C340.978 130.464 342.178 131.136 343.042 132.48C344.002 133.824 344.482 135.456 344.482 137.376C344.482 139.104 344.05 140.64 343.186 141.984C342.322 143.328 341.074 144 339.442 144H288.178C286.354 144 284.77 143.568 283.426 142.704C282.082 141.744 281.41 140.496 281.41 138.96Z" fill="#36A8CD"/>
<path d="M354.511 112.752V70.8481C354.511 59.8081 357.439 51.6961 363.295 46.5121C369.247 41.3281 376.975 38.7361 386.479 38.7361C396.271 38.7361 404.143 41.1841 410.095 46.0801C416.143 50.8801 419.167 57.1201 419.167 64.8001C419.167 67.8721 418.591 69.9841 417.439 71.1361C416.287 72.1921 414.319 72.7201 411.535 72.7201C406.543 72.7201 403.999 71.0401 403.903 67.6801C403.327 57.4081 397.711 52.2721 387.055 52.2721C375.535 52.2721 369.775 58.4641 369.775 70.8481V112.752C369.775 125.136 375.631 131.328 387.343 131.328C390.799 131.328 393.679 130.848 395.983 129.888C398.287 128.832 399.919 127.344 400.879 125.424C401.935 123.504 402.655 121.824 403.039 120.384C403.423 118.944 403.711 117.168 403.903 115.056C404.191 111.696 406.687 110.016 411.391 110.016C414.175 110.016 416.143 110.592 417.295 111.744C418.543 112.8 419.167 114.864 419.167 117.936C419.167 125.904 416.143 132.384 410.095 137.376C404.047 142.368 396.127 144.864 386.335 144.864C376.831 144.864 369.151 142.272 363.295 137.088C357.439 131.904 354.511 123.792 354.511 112.752Z" fill="#36A8CD"/>
</svg>
