<svg xmlns="http://www.w3.org/2000/svg" width="94.829" height="35.561" viewBox="0 0 94.829 35.561">
  <g id="Pntec_Logo" data-name="Pntec Logo" transform="translate(0 0)">
    <path id="Path_26" data-name="Path 26" d="M0,0H94.829V35.561H0Z" transform="translate(0 0)"/>
    <path id="Path_21" data-name="Path 21" d="M43.59,57.7V37.76a.944.944,0,0,1,.331-.723,1.364,1.364,0,0,1,.9-.3H50.7a6.9,6.9,0,0,1,4.789,1.6q1.807,1.6,1.807,5.03V43.6q0,3.434-1.868,5.061a7.224,7.224,0,0,1-4.91,1.6H46.783V57.7a.9.9,0,0,1-.482.783,2.131,2.131,0,0,1-1.115.271,2.235,2.235,0,0,1-1.115-.271A.9.9,0,0,1,43.59,57.7Zm3.193-9.97h3.735a3.52,3.52,0,0,0,2.651-.964,4.166,4.166,0,0,0,.934-2.952v-.361a4.053,4.053,0,0,0-.934-2.922,3.52,3.52,0,0,0-2.651-.964H46.783Z" transform="translate(-34.472 -29.052)" fill="#fff"/>
    <path id="Path_22" data-name="Path 22" d="M122.059,57.7V37.79q0-1.054,1.6-1.054a2.173,2.173,0,0,1,1.355.392,3.944,3.944,0,0,1,1.054,1.416l6.687,13.043V37.76a.8.8,0,0,1,.452-.753,2.3,2.3,0,0,1,1.145-.271,2.131,2.131,0,0,1,1.115.271.793.793,0,0,1,.482.753V57.7a.9.9,0,0,1-.482.783,2.131,2.131,0,0,1-1.115.271,2.036,2.036,0,0,1-1.9-1.175l-7.2-13.706V57.7a.9.9,0,0,1-.482.783,2.131,2.131,0,0,1-1.115.271,2.235,2.235,0,0,1-1.115-.271A.9.9,0,0,1,122.059,57.7Z" transform="translate(-96.526 -29.052)" fill="#fff"/>
    <path id="Path_23" data-name="Path 23" d="M200.094,40.182a1.8,1.8,0,0,1,.271-.994.863.863,0,0,1,.783-.452h12.5a.875.875,0,0,1,.783.422,1.8,1.8,0,0,1,.271.994,1.91,1.91,0,0,1-.3,1.084.85.85,0,0,1-.753.422H209.01V59.7a.9.9,0,0,1-.482.783,2.235,2.235,0,0,1-1.115.271,2.3,2.3,0,0,1-1.145-.271.908.908,0,0,1-.452-.783V41.658h-4.669a.922.922,0,0,1-.783-.422A2.01,2.01,0,0,1,200.094,40.182Z" transform="translate(-158.238 -30.633)" fill="#36a8cd"/>
    <path id="Path_24" data-name="Path 24" d="M281.41,59.7V39.79a.85.85,0,0,1,.422-.753,1.665,1.665,0,0,1,.994-.3h10.724a.875.875,0,0,1,.783.422,1.744,1.744,0,0,1,.271.964,1.716,1.716,0,0,1-.3,1.024.85.85,0,0,1-.753.422H284.6v6.9h4.639a.866.866,0,0,1,.753.392,1.364,1.364,0,0,1,.3.9,1.5,1.5,0,0,1-.271.874.919.919,0,0,1-.783.361H284.6v6.928h8.946a.85.85,0,0,1,.753.422,1.716,1.716,0,0,1,.3,1.024,1.744,1.744,0,0,1-.271.964.875.875,0,0,1-.783.422H282.826a1.8,1.8,0,0,1-.994-.271A.922.922,0,0,1,281.41,59.7Z" transform="translate(-222.544 -30.633)" fill="#36a8cd"/>
    <path id="Path_25" data-name="Path 25" d="M354.511,54.219V45.453q0-3.464,1.837-5.091a7.117,7.117,0,0,1,4.85-1.627,7.531,7.531,0,0,1,4.94,1.536,4.767,4.767,0,0,1,1.9,3.916,1.87,1.87,0,0,1-.362,1.325,1.819,1.819,0,0,1-1.235.331q-1.566,0-1.6-1.054-.181-3.223-3.524-3.223-3.615,0-3.615,3.886v8.766q0,3.886,3.675,3.886a4.72,4.72,0,0,0,1.807-.3,2.039,2.039,0,0,0,1.024-.934,4.864,4.864,0,0,0,.452-1.054,6.8,6.8,0,0,0,.181-1.115q.09-1.054,1.566-1.054a1.712,1.712,0,0,1,1.235.361,1.661,1.661,0,0,1,.392,1.3,5.026,5.026,0,0,1-1.9,4.067,7.555,7.555,0,0,1-4.97,1.566,7,7,0,0,1-4.82-1.627Q354.511,57.683,354.511,54.219Z" transform="translate(-280.354 -30.633)" fill="#36a8cd"/>
  </g>
</svg>
