<svg xmlns="http://www.w3.org/2000/svg" width="193" height="51" viewBox="0 0 193 51">
  <g id="Group_460" data-name="Group 460" transform="translate(-505 30)">
    <rect id="Rectangle_129" data-name="Rectangle 129" width="193" height="51" rx="5" transform="translate(505 -30)" fill="#fff"/>
    <g id="Logo_FR" data-name="Logo FR" transform="translate(516 -22.082)">
      <g id="Group_160" data-name="Group 160" transform="translate(0 -0.002)">
        <path id="Path_59" data-name="Path 59" d="M0,36.231V17.559a1.3,1.3,0,0,1,.671-1.124,2.942,2.942,0,0,1,1.681-.445,2.756,2.756,0,0,1,1.568.445,1.342,1.342,0,0,1,.639,1.124v2.053A7.331,7.331,0,0,1,6.935,16.84a5.828,5.828,0,0,1,3.477-1.14H11.89a1.663,1.663,0,0,1,1.285.63,2.2,2.2,0,0,1,.566,1.536,2.271,2.271,0,0,1-.558,1.536,1.617,1.617,0,0,1-1.285.655H10.412A5.084,5.084,0,0,0,6.524,21.94a7.023,7.023,0,0,0-1.682,4.849v9.441A1.4,1.4,0,0,1,4.1,37.34a3.055,3.055,0,0,1-1.746.5,2.684,2.684,0,0,1-1.681-.509A1.407,1.407,0,0,1,0,36.231Z" transform="translate(0 -3.008)" fill="#7cffff"/>
        <path id="Path_60" data-name="Path 60" d="M46.91,33.261V8.8a8.827,8.827,0,0,1,2.425-6.249A7.622,7.622,0,0,1,55.066,0h2.117a1.7,1.7,0,0,1,1.382.622,2.218,2.218,0,0,1,.542,1.447A2.218,2.218,0,0,1,58.6,3.523a1.7,1.7,0,0,1-1.382.622H55.987a4.114,4.114,0,0,0-3.039,1.2,4.041,4.041,0,0,0-1.2,3v4.648h5.99a1.116,1.116,0,0,1,.962.534,2.142,2.142,0,0,1,.4,1.269,2.1,2.1,0,0,1-.37,1.261,1.116,1.116,0,0,1-.962.534H51.752V33.261a1.3,1.3,0,0,1-.744,1.132,3.355,3.355,0,0,1-1.746.436,3.007,3.007,0,0,1-1.681-.436,1.318,1.318,0,0,1-.671-1.132Z" transform="translate(-8.993 0.002)" fill="#e9f034"/>
        <path id="Path_61" data-name="Path 61" d="M65.55,36.235V17.563a1.285,1.285,0,0,1,.671-1.124,2.942,2.942,0,0,1,1.681-.445,2.711,2.711,0,0,1,1.56.445,1.334,1.334,0,0,1,.647,1.14v2.053a7.331,7.331,0,0,1,2.376-2.772,5.827,5.827,0,0,1,3.476-1.14h1.471a1.663,1.663,0,0,1,1.294.63,2.2,2.2,0,0,1,.558,1.511,2.271,2.271,0,0,1-.558,1.536,1.617,1.617,0,0,1-1.294.655H75.961a5.109,5.109,0,0,0-3.9,1.883,7.056,7.056,0,0,0-1.679,4.85v9.449a1.383,1.383,0,0,1-.736,1.109,3.055,3.055,0,0,1-1.746.5,2.684,2.684,0,0,1-1.681-.509,1.382,1.382,0,0,1-.671-1.1Z" transform="translate(-12.566 -3.012)" fill="#e9f034"/>
        <path id="Path_62" data-name="Path 62" d="M84.355,32.114a5.325,5.325,0,0,1,2.764-5.133q2.76-1.455,8.018-1.455h2.021v-.832a5.8,5.8,0,0,0-1.124-3.581A4.041,4.041,0,0,0,92.6,19.6a7.541,7.541,0,0,0-3.476.76,10.9,10.9,0,0,1-1.617.76,1.447,1.447,0,0,1-1.261-.76,3.063,3.063,0,0,1-.485-1.681c0-.808.744-1.487,2.231-2.077a12.933,12.933,0,0,1,4.728-.873q4.736,0,7.023,2.562a9.223,9.223,0,0,1,2.28,6.378V36.237a1.382,1.382,0,0,1-.671,1.124,2.78,2.78,0,0,1-1.681.485A2.546,2.546,0,0,1,98.1,37.36a1.382,1.382,0,0,1-.638-1.124V34.62q-3.1,3.6-6.962,3.6a6.288,6.288,0,0,1-4.4-1.568,5.763,5.763,0,0,1-1.754-4.534Zm4.85-.6a2.878,2.878,0,0,0,.808,2.239,3.08,3.08,0,0,0,2.215.784,4.85,4.85,0,0,0,3.347-1.479,4.251,4.251,0,0,0,1.617-3.128V28.218h-1.18a25.453,25.453,0,0,0-3.388.185,5.044,5.044,0,0,0-2.352.962,2.578,2.578,0,0,0-1.034,2.166Z" transform="translate(-16.167 -3.014)" fill="#e9f034"/>
        <path id="Path_63" data-name="Path 63" d="M111.77,5.558a2.336,2.336,0,0,1,.808-1.8,3.031,3.031,0,0,1,3.961,0,2.336,2.336,0,0,1,0,3.573,2.957,2.957,0,0,1-3.961,0A2.36,2.36,0,0,1,111.77,5.558Zm.42,28.242V15.128A1.294,1.294,0,0,1,112.853,14a3.055,3.055,0,0,1,1.73-.445,3.161,3.161,0,0,1,1.754.445,1.285,1.285,0,0,1,.687,1.124V33.8a1.374,1.374,0,0,1-.712,1.1,2.9,2.9,0,0,1-1.73.509,2.8,2.8,0,0,1-1.705-.509,1.382,1.382,0,0,1-.687-1.1Z" transform="translate(-21.427 -0.577)" fill="#e9f034"/>
        <path id="Path_64" data-name="Path 64" d="M123.629,29.042V24.895a9.271,9.271,0,0,1,2.425-6.628q2.425-2.53,7.146-2.538a10.993,10.993,0,0,1,4.99,1.026c1.35.695,2.029,1.471,2.029,2.328a2.643,2.643,0,0,1-.574,1.568,1.663,1.663,0,0,1-1.355.808,7.687,7.687,0,0,1-1.617-.695,7.048,7.048,0,0,0-3.1-.687q-5.068,0-5.068,4.85V29.05q0,4.85,5.109,4.85a6.677,6.677,0,0,0,3.16-.736,6.522,6.522,0,0,1,1.681-.736,1.811,1.811,0,0,1,1.5.736,2.522,2.522,0,0,1,.574,1.568c0,.857-.7,1.657-2.117,2.425a11.074,11.074,0,0,1-5.157,1.109q-4.8,0-7.194-2.514a9.255,9.255,0,0,1-2.417-6.709Z" transform="translate(-23.701 -3.013)" fill="#e9f034"/>
        <path id="Path_65" data-name="Path 65" d="M148.88,33.232V1.627A1.3,1.3,0,0,1,149.551.5,3.088,3.088,0,0,1,151.273.06,3.233,3.233,0,0,1,153.02.5a1.294,1.294,0,0,1,.7,1.132V16.266a6.469,6.469,0,0,1,5.889-3.541A7.275,7.275,0,0,1,165.27,15.4a9.3,9.3,0,0,1,2.36,6.434v11.4a1.326,1.326,0,0,1-.736,1.171,3.282,3.282,0,0,1-1.705.436,3.169,3.169,0,0,1-1.657-.436,1.318,1.318,0,0,1-.744-1.171v-11.4a4.712,4.712,0,0,0-1.382-3.306,4.341,4.341,0,0,0-3.233-1.471,4.276,4.276,0,0,0-3.088,1.309,4.64,4.64,0,0,0-1.366,3.467v11.4a1.4,1.4,0,0,1-.744,1.109,2.966,2.966,0,0,1-1.705.5,2.829,2.829,0,0,1-1.7-.5,1.423,1.423,0,0,1-.693-1.109Z" transform="translate(-28.541 -0.01)" fill="#e9f034"/>
        <path id="Path_66" data-name="Path 66" d="M204.63,32.763a2.279,2.279,0,0,1,.857-1.795,3.112,3.112,0,0,1,2.095-.744,2.643,2.643,0,0,1,1.875.744,2.425,2.425,0,0,1,0,3.565,2.594,2.594,0,0,1-1.875.76,3.047,3.047,0,0,1-2.095-.76A2.279,2.279,0,0,1,204.63,32.763Zm.3-29.495a2.013,2.013,0,0,1,.728-1.663,2.974,2.974,0,0,1,1.875-.61,2.2,2.2,0,0,1,1.713.606,2.425,2.425,0,0,1,.542,1.618q0,3.371-.113,11t-.113,11.028a1.253,1.253,0,0,1-.663,1.109,2.668,2.668,0,0,1-1.366.4c-1.382,0-2.077-.5-2.077-1.5q0-3.355-.275-10.993t-.25-10.989Z" transform="translate(-39.229 -0.187)" fill="#e9f034"/>
        <path id="Path_67" data-name="Path 67" d="M181.928,23.085v1.463h7.751a2.376,2.376,0,0,0,1.374-.275,1.342,1.342,0,0,0,.347-1.1,3.12,3.12,0,0,0-1.35-3.12,7.526,7.526,0,0,0-3.411-1.366V21.03l-3.783-4.5a.4.4,0,0,1,.041-.558l3.743-3.233v2.1c3.29.308,4.85,1,6.654,2.425a7.573,7.573,0,0,1,2.732,6.127,6.683,6.683,0,0,1-.331,2.3,2.134,2.134,0,0,1-1.026,1.244,4.219,4.219,0,0,1-1.3.445,10.508,10.508,0,0,1-1.617.1h-9.823v1.083a4.6,4.6,0,0,0,1.681,3.783A8.083,8.083,0,0,0,188,33.728a9.3,9.3,0,0,0,3.831-1l-.972-1.719,5.02.63a.315.315,0,0,1,.259.4l-1.713,5.23-.854-1.487s-1.568,1.891-5.715,1.867a12.028,12.028,0,0,1-7.792-2.562A8.39,8.39,0,0,1,177,28.306V23.9a8.479,8.479,0,0,1,2.845-6.378,7.777,7.777,0,0,1,2.077-1.487S181.928,22.317,181.928,23.085Z" transform="translate(-33.93 -2.44)" fill="#e9f034"/>
        <path id="Path_68" data-name="Path 68" d="M23.477,23.086v1.463h7.752a2.352,2.352,0,0,0,1.374-.275,1.342,1.342,0,0,0,.355-1.1,3.13,3.13,0,0,0-1.355-3.12,7.493,7.493,0,0,0-3.414-1.365v2.341l-3.783-4.5a.4.4,0,0,1,.041-.558l3.743-3.233v2.1c3.3.308,4.85,1,6.654,2.425a7.573,7.573,0,0,1,2.732,6.127,6.709,6.709,0,0,1-.323,2.3,2.2,2.2,0,0,1-1.026,1.244,4.332,4.332,0,0,1-1.309.445,10.386,10.386,0,0,1-1.617.1H23.477v1.083a4.621,4.621,0,0,0,1.681,3.783,8.124,8.124,0,0,0,4.389,1.382,9.247,9.247,0,0,0,3.829-1l-.967-1.722,5.02.63a.308.308,0,0,1,.259.4l-1.705,5.23-.857-1.487s-1.568,1.859-5.7,1.835a12.052,12.052,0,0,1-7.8-2.562,8.39,8.39,0,0,1-3.047-6.749V23.9a8.479,8.479,0,0,1,2.845-6.378A7.922,7.922,0,0,1,23.5,16.037S23.477,22.318,23.477,23.086Z" transform="translate(-3.561 -2.441)" fill="#7cffff"/>
      </g>
    </g>
  </g>
</svg>
